# xmcd CD database file
#
# Track frame offsets:
#	150
#	19622
#	39580
#	45487
#	65960
#	82267
#	99907
#	113820
#	144607
#	157547
#	163380
#	183387
#	210020
#	227680
#	231942
#	263260
#
# Disc length: 3888 seconds
#
# Revision: 0
# Processed by: cddbd v1.4PL0 Copyright (c) Steve Scherf et al.
# Submitted via: CDex 1.50
#
DISCID=c80f2e10
DTITLE=Splatter Trio - Anagrams
DYEAR=1992
DGENRE=Jazz
TTITLE0=Three Tests For Detecting A Lack Of Control
TTITLE1=Urban Ethic
TTITLE2=11/02 #4 Stretched
TTITLE3=Matching Tye
TTITLE4=Twilight Eric
TTITLE5=We Are Ordinary, C'mere
TTITLE6=Splatter vs. The Titans
TTITLE7=1920
TTITLE8=SatUrN ReseArch
TTITLE9=El Cerrito
TTITLE10=Tango Big Boy
TTITLE11=Sin Wing Swinging
TTITLE12=Field Of Lost Edges
TTITLE13=The Pardon Me Shower
TTITLE14=Dear Jonathan
TTITLE15=Not For Strangers
EXTD=YEAR: 1992
EXTT0=
EXTT1=
EXTT2=
EXTT3=
EXTT4=
EXTT5=
EXTT6=
EXTT7=
EXTT8=
EXTT9=
EXTT10=
EXTT11=
EXTT12=
EXTT13=
EXTT14=
EXTT15=
PLAYORDER=
